<svg class="svg-icon" style="width: 1em; height: 1em;vertical-align: middle;fill: currentColor;overflow: hidden;" viewBox="0 0 1024 1024" version="1.1" xmlns="http://www.w3.org/2000/svg"><path d="M691.2 460.8C620.6464 460.8 563.2 403.3536 563.2 332.8S620.6464 204.8 691.2 204.8 819.2 262.2464 819.2 332.8 761.7536 460.8 691.2 460.8z m0-204.8c-42.3424 0-76.8 34.4576-76.8 76.8S648.8576 409.6 691.2 409.6 768 375.1424 768 332.8 733.5424 256 691.2 256zM25.6 1024a25.5488 25.5488 0 0 1-24.064-34.304c78.7968-216.6272 161.6384-326.5024 246.1696-326.5024 27.904 0 53.9648 11.9808 77.568 35.5328 37.2736 37.2736 38.6048 74.3936 33.1776 98.9696-17.1008 77.2096-126.1568 152.832-324.096 224.8192a26.112 26.112 0 0 1-8.7552 1.536z m222.1568-309.6576c-25.344 0-55.1936 22.2208-86.272 64.256-30.5664 41.3184-61.2864 100.1984-91.5456 175.4624 68.352-27.4944 123.2896-55.3984 163.7888-83.2 54.6304-37.5296 70.8096-66.56 74.752-84.2752s-2.4064-34.6624-19.4048-51.6608c-13.824-13.824-27.3408-20.5312-41.3696-20.5312z" fill="" /><path d="M998.4 0c-132.864 0-251.2384 22.528-351.9488 66.9696-82.9952 36.6592-154.0608 88.064-211.2512 152.8832-10.6496 12.0832-20.5312 24.32-29.696 36.608-44.1344 2.9184-89.2928 20.48-134.3488 52.224-38.144 26.8288-76.4416 64-113.92 110.4384-62.976 78.0288-101.6832 154.9824-103.3216 158.208a25.6 25.6 0 0 0 40.96 29.5936c0.256-0.256 24.7296-24.32 66.4576-47.9232 34.4064-19.456 87.4496-42.3424 151.6032-46.3872 16.2304 41.5232 62.6688 91.1872 84.9408 113.4592s71.936 68.7104 113.4592 84.9408c-4.0448 64.1536-26.9312 117.1968-46.3872 151.6032-23.6544 41.7792-47.6672 66.2016-47.872 66.4064a25.6512 25.6512 0 0 0 29.5424 41.0112c3.2256-1.6384 80.1792-40.3456 158.208-103.3216 46.4384-37.4784 83.6096-75.776 110.4384-113.92 31.744-45.1072 49.2544-90.2144 52.224-134.3488 12.2368-9.1136 24.4736-18.9952 36.608-29.696 64.8192-57.1904 116.224-128.256 152.8832-211.2512 44.4416-100.6592 66.9696-219.0848 66.9696-351.9488v-25.6h-25.6zM159.0784 502.1696c48.7936-70.8096 123.392-158.6176 207.4624-186.2144-33.2288 58.2144-50.432 111.6672-56.6272 145.5616a398.5408 398.5408 0 0 0-150.8352 40.6528z m362.8032 362.5984a397.3632 397.3632 0 0 0 40.6016-150.7328c33.8432-6.1952 87.3472-23.3984 145.5104-56.576-27.648 83.9168-115.4048 158.5152-186.1632 207.3088z m248.3712-314.368C663.7568 644.352 553.472 665.6 537.6 665.6c-0.1024 0-10.5984-0.2048-38.8608-20.1216-19.712-13.8752-42.7008-33.6384-64.6144-55.552s-41.6768-44.9024-55.552-64.6144c-19.9168-28.2624-20.1216-38.7584-20.1216-38.8608 0-15.872 21.248-126.1568 115.2-232.6528 112.4352-127.3856 284.5184-197.0688 498.8928-202.24-5.1712 214.3744-74.8032 386.4576-202.24 498.8928z" fill="" /></svg>